<mxfile host="app.diagrams.net" modified="2023-08-25T03:11:31.918Z" agent="Mozilla/5.0 (Windows NT 10.0; Win64; x64) AppleWebKit/537.36 (KHTML, like Gecko) Chrome/116.0.0.0 Safari/537.36 Edg/116.0.1938.54" etag="gEn5_tGShNY53gyZ9wcL" version="21.6.9" type="github">
  <diagram name="第 1 页" id="t-X-tSpNqa5irJSj03NE">
    <mxGraphModel dx="1379" dy="756" grid="1" gridSize="10" guides="1" tooltips="1" connect="1" arrows="1" fold="1" page="1" pageScale="1" pageWidth="827" pageHeight="1169" math="0" shadow="0">
      <root>
        <mxCell id="0" />
        <mxCell id="1" parent="0" />
        <mxCell id="oaDc06ousuzxCTAsrzBe-3" value="" style="edgeStyle=orthogonalEdgeStyle;rounded=0;orthogonalLoop=1;jettySize=auto;html=1;" edge="1" parent="1" source="oaDc06ousuzxCTAsrzBe-1" target="oaDc06ousuzxCTAsrzBe-2">
          <mxGeometry relative="1" as="geometry" />
        </mxCell>
        <mxCell id="oaDc06ousuzxCTAsrzBe-1" value="" style="rounded=0;whiteSpace=wrap;html=1;" vertex="1" parent="1">
          <mxGeometry x="150" y="170" width="120" height="60" as="geometry" />
        </mxCell>
        <mxCell id="oaDc06ousuzxCTAsrzBe-2" value="" style="ellipse;whiteSpace=wrap;html=1;rounded=0;" vertex="1" parent="1">
          <mxGeometry x="370" y="160" width="80" height="80" as="geometry" />
        </mxCell>
      </root>
    </mxGraphModel>
  </diagram>
</mxfile>
